<svg id="visual" viewBox="0 0 900 600" width="900" height="600" xmlns="http://www.w3.org/2000/svg" xmlns:xlink="http://www.w3.org/1999/xlink" version="1.1"><rect x="0" y="0" width="900" height="600" fill="#f4f4f4"></rect><path d="M0 516L8.8 515.8C17.7 515.7 35.3 515.3 53 514.3C70.7 513.3 88.3 511.7 106 512.8C123.7 514 141.3 518 159 515.2C176.7 512.3 194.3 502.7 212 500.3C229.7 498 247.3 503 265 505.8C282.7 508.7 300.3 509.3 318 511C335.7 512.7 353.3 515.3 371 513.7C388.7 512 406.3 506 423.8 504.8C441.3 503.7 458.7 507.3 476.2 506.7C493.7 506 511.3 501 529 501.5C546.7 502 564.3 508 582 510.8C599.7 513.7 617.3 513.3 635 510.5C652.7 507.7 670.3 502.3 688 502.2C705.7 502 723.3 507 741 511C758.7 515 776.3 518 794 519C811.7 520 829.3 519 847 516.2C864.7 513.3 882.3 508.7 891.2 506.3L900 504L900 601L891.2 601C882.3 601 864.7 601 847 601C829.3 601 811.7 601 794 601C776.3 601 758.7 601 741 601C723.3 601 705.7 601 688 601C670.3 601 652.7 601 635 601C617.3 601 599.7 601 582 601C564.3 601 546.7 601 529 601C511.3 601 493.7 601 476.2 601C458.7 601 441.3 601 423.8 601C406.3 601 388.7 601 371 601C353.3 601 335.7 601 318 601C300.3 601 282.7 601 265 601C247.3 601 229.7 601 212 601C194.3 601 176.7 601 159 601C141.3 601 123.7 601 106 601C88.3 601 70.7 601 53 601C35.3 601 17.7 601 8.8 601L0 601Z" fill="#524f51"></path><path d="M0 514L8.8 512.8C17.7 511.7 35.3 509.3 53 509C70.7 508.7 88.3 510.3 106 514.2C123.7 518 141.3 524 159 522.8C176.7 521.7 194.3 513.3 212 511.5C229.7 509.7 247.3 514.3 265 518.7C282.7 523 300.3 527 318 527.3C335.7 527.7 353.3 524.3 371 522C388.7 519.7 406.3 518.3 423.8 519.7C441.3 521 458.7 525 476.2 525.2C493.7 525.3 511.3 521.7 529 519.8C546.7 518 564.3 518 582 516C599.7 514 617.3 510 635 511.2C652.7 512.3 670.3 518.7 688 518.2C705.7 517.7 723.3 510.3 741 508C758.7 505.7 776.3 508.3 794 510.2C811.7 512 829.3 513 847 515.3C864.7 517.7 882.3 521.3 891.2 523.2L900 525L900 601L891.2 601C882.3 601 864.7 601 847 601C829.3 601 811.7 601 794 601C776.3 601 758.7 601 741 601C723.3 601 705.7 601 688 601C670.3 601 652.7 601 635 601C617.3 601 599.7 601 582 601C564.3 601 546.7 601 529 601C511.3 601 493.7 601 476.2 601C458.7 601 441.3 601 423.8 601C406.3 601 388.7 601 371 601C353.3 601 335.7 601 318 601C300.3 601 282.7 601 265 601C247.3 601 229.7 601 212 601C194.3 601 176.7 601 159 601C141.3 601 123.7 601 106 601C88.3 601 70.7 601 53 601C35.3 601 17.7 601 8.8 601L0 601Z" fill="#4a4647"></path><path d="M0 536L8.8 532.5C17.7 529 35.3 522 53 520.3C70.7 518.7 88.3 522.3 106 523.5C123.7 524.7 141.3 523.3 159 523C176.7 522.7 194.3 523.3 212 525.5C229.7 527.7 247.3 531.3 265 530C282.7 528.7 300.3 522.3 318 521C335.7 519.7 353.3 523.3 371 524C388.7 524.7 406.3 522.3 423.8 521.2C441.3 520 458.7 520 476.2 520C493.7 520 511.3 520 529 519.2C546.7 518.3 564.3 516.7 582 516.3C599.7 516 617.3 517 635 518.7C652.7 520.3 670.3 522.7 688 522.2C705.7 521.7 723.3 518.3 741 516.8C758.7 515.3 776.3 515.7 794 519.7C811.7 523.7 829.3 531.3 847 532.7C864.7 534 882.3 529 891.2 526.5L900 524L900 601L891.2 601C882.3 601 864.7 601 847 601C829.3 601 811.7 601 794 601C776.3 601 758.7 601 741 601C723.3 601 705.7 601 688 601C670.3 601 652.7 601 635 601C617.3 601 599.7 601 582 601C564.3 601 546.7 601 529 601C511.3 601 493.7 601 476.2 601C458.7 601 441.3 601 423.8 601C406.3 601 388.7 601 371 601C353.3 601 335.7 601 318 601C300.3 601 282.7 601 265 601C247.3 601 229.7 601 212 601C194.3 601 176.7 601 159 601C141.3 601 123.7 601 106 601C88.3 601 70.7 601 53 601C35.3 601 17.7 601 8.8 601L0 601Z" fill="#413e3e"></path><path d="M0 539L8.8 538C17.7 537 35.3 535 53 535.8C70.7 536.7 88.3 540.3 106 541.7C123.7 543 141.3 542 159 543.5C176.7 545 194.3 549 212 550.8C229.7 552.7 247.3 552.3 265 548.8C282.7 545.3 300.3 538.7 318 535.7C335.7 532.7 353.3 533.3 371 533C388.7 532.7 406.3 531.3 423.8 530.5C441.3 529.7 458.7 529.3 476.2 531.3C493.7 533.3 511.3 537.7 529 540.3C546.7 543 564.3 544 582 545.3C599.7 546.7 617.3 548.3 635 546.2C652.7 544 670.3 538 688 535.8C705.7 533.7 723.3 535.3 741 535.2C758.7 535 776.3 533 794 535.5C811.7 538 829.3 545 847 545.3C864.7 545.7 882.3 539.3 891.2 536.2L900 533L900 601L891.2 601C882.3 601 864.7 601 847 601C829.3 601 811.7 601 794 601C776.3 601 758.7 601 741 601C723.3 601 705.7 601 688 601C670.3 601 652.7 601 635 601C617.3 601 599.7 601 582 601C564.3 601 546.7 601 529 601C511.3 601 493.7 601 476.2 601C458.7 601 441.3 601 423.8 601C406.3 601 388.7 601 371 601C353.3 601 335.7 601 318 601C300.3 601 282.7 601 265 601C247.3 601 229.7 601 212 601C194.3 601 176.7 601 159 601C141.3 601 123.7 601 106 601C88.3 601 70.7 601 53 601C35.3 601 17.7 601 8.8 601L0 601Z" fill="#383635"></path><path d="M0 544L8.8 547C17.7 550 35.3 556 53 557.7C70.7 559.3 88.3 556.7 106 555C123.7 553.3 141.3 552.7 159 550.7C176.7 548.7 194.3 545.3 212 544.3C229.7 543.3 247.3 544.7 265 547.7C282.7 550.7 300.3 555.3 318 554.5C335.7 553.7 353.3 547.3 371 546.2C388.7 545 406.3 549 423.8 552.5C441.3 556 458.7 559 476.2 560C493.7 561 511.3 560 529 559C546.7 558 564.3 557 582 554.5C599.7 552 617.3 548 635 548.7C652.7 549.3 670.3 554.7 688 554.8C705.7 555 723.3 550 741 549.5C758.7 549 776.3 553 794 554.8C811.7 556.7 829.3 556.3 847 555.3C864.7 554.3 882.3 552.7 891.2 551.8L900 551L900 601L891.2 601C882.3 601 864.7 601 847 601C829.3 601 811.7 601 794 601C776.3 601 758.7 601 741 601C723.3 601 705.7 601 688 601C670.3 601 652.7 601 635 601C617.3 601 599.7 601 582 601C564.3 601 546.7 601 529 601C511.3 601 493.7 601 476.2 601C458.7 601 441.3 601 423.8 601C406.3 601 388.7 601 371 601C353.3 601 335.7 601 318 601C300.3 601 282.7 601 265 601C247.3 601 229.7 601 212 601C194.3 601 176.7 601 159 601C141.3 601 123.7 601 106 601C88.3 601 70.7 601 53 601C35.3 601 17.7 601 8.8 601L0 601Z" fill="#302e2d"></path><path d="M0 570L8.8 570.5C17.7 571 35.3 572 53 572C70.7 572 88.3 571 106 570.8C123.7 570.7 141.3 571.3 159 571.8C176.7 572.3 194.3 572.7 212 571C229.7 569.3 247.3 565.7 265 564.7C282.7 563.7 300.3 565.3 318 566.3C335.7 567.3 353.3 567.7 371 567.8C388.7 568 406.3 568 423.8 567.3C441.3 566.7 458.7 565.3 476.2 564C493.7 562.7 511.3 561.3 529 561C546.7 560.7 564.3 561.3 582 561.8C599.7 562.3 617.3 562.7 635 564.3C652.7 566 670.3 569 688 568.3C705.7 567.7 723.3 563.3 741 563.3C758.7 563.3 776.3 567.7 794 569C811.7 570.3 829.3 568.7 847 568.2C864.7 567.7 882.3 568.3 891.2 568.7L900 569L900 601L891.2 601C882.3 601 864.7 601 847 601C829.3 601 811.7 601 794 601C776.3 601 758.7 601 741 601C723.3 601 705.7 601 688 601C670.3 601 652.7 601 635 601C617.3 601 599.7 601 582 601C564.3 601 546.7 601 529 601C511.3 601 493.7 601 476.2 601C458.7 601 441.3 601 423.8 601C406.3 601 388.7 601 371 601C353.3 601 335.7 601 318 601C300.3 601 282.7 601 265 601C247.3 601 229.7 601 212 601C194.3 601 176.7 601 159 601C141.3 601 123.7 601 106 601C88.3 601 70.7 601 53 601C35.3 601 17.7 601 8.8 601L0 601Z" fill="#272625"></path><path d="M0 575L8.8 576.2C17.7 577.3 35.3 579.7 53 580.8C70.7 582 88.3 582 106 579.5C123.7 577 141.3 572 159 571C176.7 570 194.3 573 212 574C229.7 575 247.3 574 265 574.3C282.7 574.7 300.3 576.3 318 577.3C335.7 578.3 353.3 578.7 371 578C388.7 577.3 406.3 575.7 423.8 575.3C441.3 575 458.7 576 476.2 575.8C493.7 575.7 511.3 574.3 529 573.7C546.7 573 564.3 573 582 572.8C599.7 572.7 617.3 572.3 635 572.2C652.7 572 670.3 572 688 571.2C705.7 570.3 723.3 568.7 741 569.5C758.7 570.3 776.3 573.7 794 576.2C811.7 578.7 829.3 580.3 847 578.8C864.7 577.3 882.3 572.7 891.2 570.3L900 568L900 601L891.2 601C882.3 601 864.7 601 847 601C829.3 601 811.7 601 794 601C776.3 601 758.7 601 741 601C723.3 601 705.7 601 688 601C670.3 601 652.7 601 635 601C617.3 601 599.7 601 582 601C564.3 601 546.7 601 529 601C511.3 601 493.7 601 476.2 601C458.7 601 441.3 601 423.8 601C406.3 601 388.7 601 371 601C353.3 601 335.7 601 318 601C300.3 601 282.7 601 265 601C247.3 601 229.7 601 212 601C194.3 601 176.7 601 159 601C141.3 601 123.7 601 106 601C88.3 601 70.7 601 53 601C35.3 601 17.7 601 8.8 601L0 601Z" fill="#1f1e1d"></path><path d="M0 584L8.8 583.2C17.7 582.3 35.3 580.7 53 579.8C70.7 579 88.3 579 106 580C123.7 581 141.3 583 159 583.5C176.7 584 194.3 583 212 583.5C229.7 584 247.3 586 265 587.2C282.7 588.3 300.3 588.7 318 588C335.7 587.3 353.3 585.7 371 585.5C388.7 585.3 406.3 586.7 423.8 586.2C441.3 585.7 458.7 583.3 476.2 581.8C493.7 580.3 511.3 579.7 529 580.2C546.7 580.7 564.3 582.3 582 584C599.7 585.7 617.3 587.3 635 586.7C652.7 586 670.3 583 688 583.7C705.7 584.3 723.3 588.7 741 590C758.7 591.3 776.3 589.7 794 587.7C811.7 585.7 829.3 583.3 847 583.5C864.7 583.7 882.3 586.3 891.2 587.7L900 589L900 601L891.2 601C882.3 601 864.7 601 847 601C829.3 601 811.7 601 794 601C776.3 601 758.7 601 741 601C723.3 601 705.7 601 688 601C670.3 601 652.7 601 635 601C617.3 601 599.7 601 582 601C564.3 601 546.7 601 529 601C511.3 601 493.7 601 476.2 601C458.7 601 441.3 601 423.8 601C406.3 601 388.7 601 371 601C353.3 601 335.7 601 318 601C300.3 601 282.7 601 265 601C247.3 601 229.7 601 212 601C194.3 601 176.7 601 159 601C141.3 601 123.7 601 106 601C88.3 601 70.7 601 53 601C35.3 601 17.7 601 8.8 601L0 601Z" fill="#171716"></path></svg>